<svg id="圖層_1" data-name="圖層 1" xmlns="http://www.w3.org/2000/svg" viewBox="0 0 595.28 841.89"><defs><style>.cls-1,.cls-7,.cls-8{fill:#56ccf2;}.cls-1,.cls-2,.cls-4,.cls-5,.cls-6,.cls-8{stroke:#231815;stroke-miterlimit:10;}.cls-1,.cls-4,.cls-6{stroke-linecap:round;}.cls-1{stroke-width:2px;}.cls-2,.cls-3{fill:#fff;}.cls-2,.cls-8{stroke-width:3px;}.cls-4,.cls-5,.cls-6{fill:none;}.cls-4,.cls-5{stroke-width:4px;}.cls-9{fill:#231815;}</style></defs><circle class="cls-1" cx="321.66" cy="295.88" r="9.55"/><line class="cls-2" x1="322" y1="316.02" x2="321.66" y2="305.43"/><circle class="cls-3" cx="318.12" cy="296.57" r="2.69"/><path class="cls-4" d="M358.2,349.11c.14-7.94-.39-14.18-1-16.27"/><path class="cls-4" d="M357.92,355.91c.15-2.36.24-4.64.28-6.8"/><path class="cls-4" d="M357.75,358.35c.06-.82.12-1.64.17-2.44"/><path class="cls-4" d="M357.59,360.21c.06-.62.11-1.24.16-1.86"/><path class="cls-4" d="M357.41,362l.18-1.81"/><path class="cls-5" d="M357.23,363.63l.18-1.61"/><path class="cls-4" d="M353.61,381.26c.38-1.18.72-2.38,1-3.58"/><path class="cls-4" d="M357.21,332.84C334,305,295,323.15,295,323.15c-4.84,4.36-8.47,20.1-8.47,20.1a101.62,101.62,0,0,0-1.7,28.09c1.21,15.74,5.57,20.1,5.57,20.1s3.46,5.35,17.66,8.18a83.76,83.76,0,0,0,9,1.26,107.46,107.46,0,0,0,22.76-.24c6.64-3.05,11-10.48,13.83-19.38"/><path class="cls-6" d="M319,401s13.57-17.43,18.3-25.9,7.82-23,9.12-33.41,1.81-17.06,1.81-17.06"/><path class="cls-6" d="M295.24,378.49s11.32,4,17.36,4.48,16.57.43,19.72,0"/><path class="cls-6" d="M308,399.62c-4.81-4.33-13.12-19-17.25-33.88-4.87-17.56,10.6-46.2,11.95-45.39"/><ellipse class="cls-3" cx="298.91" cy="360.05" rx="2.67" ry="7.17"/><path d="M302.37,320.32c-2.42,1.62-16.35,28.52-11.69,45.31a102.67,102.67,0,0,0,4.52,12.77c.9.32,11.51,4,17.29,4.46,6,.51,16.56.44,19.71,0,2-2.89,3.77-5.63,5-7.79,4.73-8.48,7.83-23,9.13-33.41s1.81-17,1.81-17.06C332.13,313.79,312.78,317.2,302.37,320.32ZM298.93,371c-3.6,0-6.52-5-6.52-11.07s2.92-11.08,6.52-11.08,6.52,5,6.52,11.08S302.53,371,298.93,371Zm27.48-.44c-3.6,0-6.52-5-6.52-11.08s2.92-11.07,6.52-11.07,6.52,5,6.52,11.07S330,370.59,326.41,370.59Z"/><ellipse class="cls-3" cx="326.39" cy="359.61" rx="2.67" ry="7.17"/><path class="cls-7" d="M298.93,348.88c-3.6,0-6.52,5-6.52,11.08S295.33,371,298.93,371s6.52-5,6.52-11.07S302.53,348.88,298.93,348.88Zm0,18.34c-1.48,0-2.67-3.21-2.67-7.17s1.19-7.17,2.67-7.17,2.67,3.21,2.67,7.17S300.38,367.22,298.91,367.22Z"/><path class="cls-7" d="M326.41,348.44c-3.6,0-6.52,5-6.52,11.07s2.92,11.08,6.52,11.08,6.52-5,6.52-11.08S330,348.44,326.41,348.44Zm0,18.33c-1.48,0-2.67-3.2-2.67-7.16s1.19-7.17,2.67-7.17,2.67,3.21,2.67,7.17S327.86,366.77,326.39,366.77Z"/><path class="cls-4" d="M285.23,375.45l-5.46,3.89.08,8.85s-4,4.46-12.35,4-5.65-9.14-4.32-11.47l1.33-2.32,3.49-1.67"/><polyline class="cls-6" points="264.51 378.36 263.27 377.1 284.67 357.88"/><circle class="cls-8" cx="267.43" cy="377.32" r="5.34"/><path class="cls-9" d="M357.29,363.23A67.31,67.31,0,0,0,344.85,361c-5.29,11.05,18.41,24.4,18.41,24.4l.23,5.75a16.71,16.71,0,0,0,5.49,6.2,14.83,14.83,0,0,0,14.36,0A12,12,0,0,0,389,386.7c0-3.76-4-6.81-4-6.81l-2.6.79.1-6.08a84.57,84.57,0,0,0-25.3-11.37m26.17,27a8.45,8.45,0,0,1-4,3.19c-6.32,2.67-11.5-4.11-11.5-4.11l-.12-6.84s-23.24-11.35-19.06-19.54c0,0,17.3,2.61,32.21,12l-.11,7.08,2.19.53S385.55,386.69,383.46,390.23Z"/><circle class="cls-8" cx="380.38" cy="377.73" r="6.13"/><path class="cls-9" d="M244,467.36h-.72a1.43,1.43,0,0,0-.52-.95,2,2,0,0,0-1.27-.34,2.06,2.06,0,0,0-1.13.28.84.84,0,0,0-.43.74.85.85,0,0,0,.56.76,7.71,7.71,0,0,0,1.32.43,6.09,6.09,0,0,1,1.62.58,1.39,1.39,0,0,1,.75,1.24c0,1.25-.85,1.89-2.54,1.89s-2.49-.71-2.63-2.13h.71a1.75,1.75,0,0,0,.58,1.18,2.24,2.24,0,0,0,1.31.32c1.21,0,1.82-.4,1.82-1.22a.94.94,0,0,0-.62-.86,8.2,8.2,0,0,0-1.39-.44,6.11,6.11,0,0,1-1.53-.55,1.32,1.32,0,0,1-.71-1.19,1.4,1.4,0,0,1,.68-1.21,2.83,2.83,0,0,1,1.64-.44C243,465.45,243.85,466.09,244,467.36Z"/><path class="cls-9" d="M252,466.45a4.32,4.32,0,0,1,.72,2.48h-5.09a2.84,2.84,0,0,0,.62,1.78,2,2,0,0,0,1.55.65,2.09,2.09,0,0,0,1.38-.44,2.39,2.39,0,0,0,.67-1.09h.74a2.91,2.91,0,0,1-.84,1.47,2.78,2.78,0,0,1-1.95.69,2.67,2.67,0,0,1-2.11-.89,3.86,3.86,0,0,1,0-4.68,2.62,2.62,0,0,1,2.13-1A2.54,2.54,0,0,1,252,466.45Zm-3.7.26a2.71,2.71,0,0,0-.66,1.63H252c-.13-1.51-.85-2.27-2.17-2.27A1.87,1.87,0,0,0,248.31,466.71Z"/><path class="cls-9" d="M260.53,466.45a4.32,4.32,0,0,1,.72,2.48h-5.09a2.79,2.79,0,0,0,.62,1.78,1.93,1.93,0,0,0,1.55.65,2.09,2.09,0,0,0,1.38-.44,2.3,2.3,0,0,0,.66-1.09h.74a2.83,2.83,0,0,1-.83,1.47,2.78,2.78,0,0,1-1.95.69,2.67,2.67,0,0,1-2.11-.89,3.86,3.86,0,0,1,0-4.68,2.61,2.61,0,0,1,2.12-1A2.55,2.55,0,0,1,260.53,466.45Zm-3.71.26a2.76,2.76,0,0,0-.65,1.63h4.31c-.12-1.51-.84-2.27-2.17-2.27A1.89,1.89,0,0,0,256.82,466.71Z"/><path class="cls-9" d="M270.31,465.62l1.7,5.27,1.57-5.27h.7l1.58,5.27,1.71-5.27h.8l-2.15,6.2h-.7l-1.58-5.27-1.59,5.27h-.7l-2.15-6.2Z"/><path class="cls-9" d="M286,466.43a3.46,3.46,0,0,1,.77,2.29A3.42,3.42,0,0,1,286,471a2.76,2.76,0,0,1-2.21,1,2.8,2.8,0,0,1-2.22-1,3.8,3.8,0,0,1,0-4.57,3,3,0,0,1,4.42,0Zm-3.9.46a3.32,3.32,0,0,0,0,3.66,2.17,2.17,0,0,0,3.38,0,3,3,0,0,0,.56-1.83,2.91,2.91,0,0,0-.56-1.83,2.15,2.15,0,0,0-3.38,0Z"/><path class="cls-9" d="M293.49,465.58v.73a3.58,3.58,0,0,0-1-.13,1.57,1.57,0,0,0-1.36.74,2.64,2.64,0,0,0-.49,1.62v3.28H290v-6.2h.73v1.18a2.4,2.4,0,0,1,.69-.92,1.81,1.81,0,0,1,1.21-.43A2.66,2.66,0,0,1,293.49,465.58Z"/><path class="cls-9" d="M297.15,463.09v8.73h-.73v-8.73Z"/><path class="cls-9" d="M306.23,463.09v8.73h-.69v-1.23a2.24,2.24,0,0,1-2.19,1.4,2.55,2.55,0,0,1-2.12-1,3.65,3.65,0,0,1-.69-2.29,3.58,3.58,0,0,1,.69-2.26,2.44,2.44,0,0,1,2.08-1,2.3,2.3,0,0,1,2.2,1.47v-3.83Zm-4.43,3.76a3,3,0,0,0-.52,1.86,3.09,3.09,0,0,0,.51,1.87,1.87,1.87,0,0,0,1.63.8,1.9,1.9,0,0,0,1.59-.77,3,3,0,0,0,.52-1.8v-.15a3,3,0,0,0-.56-1.86,1.81,1.81,0,0,0-1.52-.74A1.94,1.94,0,0,0,301.8,466.85Z"/><path class="cls-9" d="M317.07,465.62h1.63v.62h-1.63v4.2a1,1,0,0,0,.14.59.77.77,0,0,0,.55.16h.78v.63h-.88a1.3,1.3,0,0,1-1-.37,1.47,1.47,0,0,1-.28-1v-4.2H315v-.62h1.33v-1.7l.73-.3Z"/><path class="cls-9" d="M322.42,463.09v3.66a2.52,2.52,0,0,1,.87-1,2.31,2.31,0,0,1,1.19-.32,2.18,2.18,0,0,1,1.67.62,2.5,2.5,0,0,1,.61,1.79v4H326V468a2.06,2.06,0,0,0-.46-1.41,1.71,1.71,0,0,0-1.29-.48,1.69,1.69,0,0,0-1.33.63,2.21,2.21,0,0,0-.53,1.53v3.59h-.74v-8.73Z"/><path class="cls-9" d="M333.7,465.58v.73a3.58,3.58,0,0,0-1-.13,1.56,1.56,0,0,0-1.35.74,2.64,2.64,0,0,0-.5,1.62v3.28h-.73v-6.2h.73v1.18a2.4,2.4,0,0,1,.69-.92,1.81,1.81,0,0,1,1.21-.43A2.62,2.62,0,0,1,333.7,465.58Z"/><path class="cls-9" d="M341.36,466.43a3.46,3.46,0,0,1,.76,2.29,3.41,3.41,0,0,1-.76,2.28,3,3,0,0,1-4.44,0,3.47,3.47,0,0,1-.76-2.28,3.42,3.42,0,0,1,.78-2.29,2.69,2.69,0,0,1,2.2-1A2.76,2.76,0,0,1,341.36,466.43Zm-3.9.46a3.27,3.27,0,0,0,0,3.66,2,2,0,0,0,1.68.81,2,2,0,0,0,1.7-.81,3,3,0,0,0,.55-1.83,3,3,0,0,0-.55-1.83,2,2,0,0,0-1.7-.82A2,2,0,0,0,337.46,466.89Z"/><path class="cls-9" d="M346,465.62v3.79a2.15,2.15,0,0,0,.41,1.45,1.71,1.71,0,0,0,1.35.5,1.76,1.76,0,0,0,1.27-.55,2.22,2.22,0,0,0,.62-1.43v-3.76h.73v6.2h-.73v-1a2.33,2.33,0,0,1-2.09,1.21c-1.52,0-2.29-.86-2.29-2.55v-3.82Z"/><path class="cls-9" d="M358.61,466.87v-1.25h.73v5.74c0,2-.95,3-2.81,3a3,3,0,0,1-1.9-.53,2.23,2.23,0,0,1-.8-1.48h.72a1.62,1.62,0,0,0,.59,1,2.17,2.17,0,0,0,1.39.38c1.38,0,2.08-.78,2.08-2.31v-1.19a2.35,2.35,0,0,1-2.24,1.41,2.65,2.65,0,0,1-2.1-.92,3.66,3.66,0,0,1,0-4.36,2.6,2.6,0,0,1,2.1-.94A2.32,2.32,0,0,1,358.61,466.87Zm-3.77-.07a3.11,3.11,0,0,0,0,3.49,1.89,1.89,0,0,0,1.63.76,2,2,0,0,0,1.63-.72,2.74,2.74,0,0,0,.54-1.76,2.79,2.79,0,0,0-.54-1.77,2.13,2.13,0,0,0-3.23,0Z"/><path class="cls-9" d="M363.48,463.09v3.66a2.47,2.47,0,0,1,.88-1,2.27,2.27,0,0,1,1.18-.32,2.22,2.22,0,0,1,1.68.62,2.54,2.54,0,0,1,.6,1.79v4h-.73V468a2,2,0,0,0-.46-1.41,1.71,1.71,0,0,0-1.29-.48,1.68,1.68,0,0,0-1.32.63,2.17,2.17,0,0,0-.54,1.53v3.59h-.74v-8.73Z"/><path class="cls-9" d="M377.25,465.62l1.69,5.27,1.58-5.27h.7l1.58,5.27,1.71-5.27h.79l-2.14,6.2h-.7l-1.58-5.27-1.6,5.27h-.69l-2.15-6.2Z"/><path class="cls-9" d="M393,466.43a3.46,3.46,0,0,1,.77,2.29A3.42,3.42,0,0,1,393,471a3,3,0,0,1-4.43,0,3.76,3.76,0,0,1,0-4.57,2.71,2.71,0,0,1,2.2-1A2.75,2.75,0,0,1,393,466.43Zm-3.9.46a3.27,3.27,0,0,0,0,3.66,2,2,0,0,0,1.68.81,2,2,0,0,0,1.7-.81,3,3,0,0,0,.56-1.83,3,3,0,0,0-.56-1.83,2,2,0,0,0-1.7-.82A2,2,0,0,0,389.06,466.89Z"/><path class="cls-9" d="M400.43,465.58v.73a3.63,3.63,0,0,0-1-.13,1.57,1.57,0,0,0-1.36.74,2.64,2.64,0,0,0-.5,1.62v3.28h-.72v-6.2h.72v1.18a2.33,2.33,0,0,1,.7-.92,1.79,1.79,0,0,1,1.21-.43A2.69,2.69,0,0,1,400.43,465.58Z"/><path class="cls-9" d="M408.58,463.09v8.73h-.69v-1.23a2.25,2.25,0,0,1-2.19,1.4,2.53,2.53,0,0,1-2.12-1,3.59,3.59,0,0,1-.7-2.29,3.53,3.53,0,0,1,.7-2.26,2.42,2.42,0,0,1,2.08-1,2.3,2.3,0,0,1,2.19,1.47v-3.83Zm-4.44,3.76a3,3,0,0,0-.52,1.86,3.09,3.09,0,0,0,.51,1.87,1.89,1.89,0,0,0,1.64.8,1.87,1.87,0,0,0,1.58-.77,3,3,0,0,0,.53-1.8v-.15a3,3,0,0,0-.56-1.86,1.84,1.84,0,0,0-1.53-.74A2,2,0,0,0,404.14,466.85Z"/><path class="cls-9" d="M266.46,444.6l3.9-.82c.32,2.73,1.64,4.1,4,4.1,1.74-.06,2.67-.85,2.78-2.37a2.68,2.68,0,0,0-1.83-2.55c-1.27-.49-2.44-.88-3.5-1.19-3.23-.78-4.8-2.7-4.69-5.73.32-3.4,2.46-5.22,6.44-5.47,4.14-.06,6.57,1.82,7.32,5.65l-3.9.91c-.27-2-1.35-3-3.26-3-1.54.06-2.36.7-2.47,1.92s.93,2,3.11,2.55a14.72,14.72,0,0,1,4.13,1.63,5.67,5.67,0,0,1,2.86,5.11q-.24,5.82-6.92,6T266.46,444.6Z"/><path class="cls-9" d="M296.36,443.87q-.23,7.1-6.83,7.37-6.52-.45-6.84-7.37.31-7.38,6.91-7.65Q296,436.49,296.36,443.87Zm-4,0q-.09-4.1-2.94-4.19t-2.79,4.19q.07,4,2.79,4.1Q292.39,448,292.39,443.87Z"/><path class="cls-9" d="M311.4,441l-3.9.73a2.92,2.92,0,0,0-2.55-2.09q-3,.18-3.18,4.19,0,4.1,3.18,4.1a2.68,2.68,0,0,0,2.55-2.55l4.13.54q-1.42,5.48-6.84,5.28-6.84-.18-7-7.46.24-7.29,7.07-7.56A6.7,6.7,0,0,1,311.4,441Z"/><path class="cls-9" d="M317.52,434.58h-4v-3.74h4Zm0,16.39h-4v-14.3h4Z"/><path class="cls-7" d="M341.94,429.51l-7.15,21.61H330l-7.23-21.61h4.65l4.48,15.16c.17.71.37,1.43.6,2.15q.44-1.47.6-2.25l4.22-15.06Z"/><path class="cls-7" d="M347.53,433.52h-4.3v-4h4.3Zm0,17.6h-4.3V435.77h4.3Z"/><path class="cls-7" d="M364.5,443.59v1.17H353.9a3.41,3.41,0,0,0,3.45,3.43c1.61,0,2.58-.62,2.93-1.86l4.48.59q-1.65,4.49-7.32,4.49-7.41-.29-7.75-7.72.33-8.12,7.23-8.41Q364.41,435.39,364.5,443.59Zm-10.68-1.76h6.63a3.28,3.28,0,0,0-3.27-3.32A3.24,3.24,0,0,0,353.82,441.83Z"/><path class="cls-7" d="M388.78,435.67,384,451h-4.56l-2.15-9.19a9.77,9.77,0,0,1-.17-1.95h-.09a9.6,9.6,0,0,1-.17,1.95L374.49,451h-4.31l-4.74-15.35h4.4l2.41,10.07a4.19,4.19,0,0,0,.08.69,8.61,8.61,0,0,1,.09,1.07h.09a8.26,8.26,0,0,1,.08-1.07,4.57,4.57,0,0,0,.09-.69L375,435.67h4.14l2.32,10.07c.06.26.14.85.26,1.76h.09c.11-.91.2-1.5.25-1.76l2.33-10.07Z"/></svg>