<svg id="圖層_1" data-name="圖層 1" xmlns="http://www.w3.org/2000/svg" viewBox="0 0 215.8 227.88"><defs><style>.cls-1,.cls-7,.cls-8{fill:#60a5fa;}.cls-1,.cls-2,.cls-4,.cls-5,.cls-6,.cls-8{stroke:#231815;stroke-miterlimit:10;}.cls-1,.cls-4,.cls-6{stroke-linecap:round;}.cls-1{stroke-width:2px;}.cls-2,.cls-3{fill:#fff;}.cls-2,.cls-8{stroke-width:3px;}.cls-4,.cls-5,.cls-6{fill:none;}.cls-4,.cls-5{stroke-width:4px;}.cls-9{fill:#231815;}</style></defs><circle class="cls-1" cx="103.86" cy="29.79" r="9.55"/><line class="cls-2" x1="104.2" y1="49.94" x2="103.86" y2="39.34"/><circle class="cls-3" cx="100.32" cy="30.48" r="2.69"/><path class="cls-4" d="M140.4,83c.14-7.93-.39-14.18-1-16.27"/><path class="cls-4" d="M140.12,89.82c.15-2.36.24-4.64.28-6.8"/><path class="cls-4" d="M140,92.26c.06-.82.12-1.63.17-2.44"/><path class="cls-4" d="M139.79,94.12c.06-.62.11-1.24.16-1.86"/><path class="cls-4" d="M139.61,95.93l.18-1.81"/><path class="cls-5" d="M139.43,97.55c0-.44.13-1.18.18-1.62"/><path class="cls-4" d="M135.81,115.17c.38-1.18.72-2.38,1-3.58"/><path class="cls-4" d="M139.41,66.75c-23.24-27.84-62.23-9.68-62.23-9.68-4.84,4.35-8.47,20.09-8.47,20.09A101.62,101.62,0,0,0,67,105.25c1.21,15.74,5.57,20.1,5.57,20.1s3.46,5.35,17.66,8.18a83.76,83.76,0,0,0,9,1.26,107.46,107.46,0,0,0,22.76-.24c6.64-3.05,11-10.48,13.83-19.38"/><path class="cls-6" d="M101.19,135s13.57-17.42,18.3-25.9,7.82-23,9.12-33.41,1.81-17.06,1.81-17.06"/><path class="cls-6" d="M77.44,112.4s11.32,4,17.36,4.48,16.57.44,19.72,0"/><path class="cls-6" d="M90.24,133.53c-4.81-4.33-13.12-19-17.25-33.88-4.87-17.56,10.6-46.2,12-45.39"/><ellipse class="cls-3" cx="81.11" cy="93.96" rx="2.67" ry="7.17"/><path d="M84.57,54.24c-2.42,1.61-16.35,28.51-11.69,45.3a102.67,102.67,0,0,0,4.52,12.77c.9.32,11.51,4,17.29,4.46,6,.51,16.56.44,19.71,0,2-2.88,3.77-5.63,5-7.79,4.73-8.47,7.83-23,9.13-33.41s1.81-17,1.81-17.05C114.33,47.71,95,51.11,84.57,54.24ZM81.13,105c-3.6,0-6.52-5-6.52-11.08s2.92-11.08,6.52-11.08,6.52,5,6.52,11.08S84.73,105,81.13,105Zm27.48-.45c-3.6,0-6.52-5-6.52-11.07s2.92-11.08,6.52-11.08,6.52,5,6.52,11.08S112.21,104.5,108.61,104.5Z"/><ellipse class="cls-3" cx="108.59" cy="93.52" rx="2.67" ry="7.17"/><path class="cls-7" d="M81.13,82.79c-3.6,0-6.52,5-6.52,11.08S77.53,105,81.13,105s6.52-5,6.52-11.08S84.73,82.79,81.13,82.79Zm0,18.34c-1.48,0-2.67-3.21-2.67-7.17s1.19-7.17,2.67-7.17S83.78,90,83.78,94,82.58,101.13,81.11,101.13Z"/><path class="cls-7" d="M108.61,82.35c-3.6,0-6.52,5-6.52,11.08s2.92,11.07,6.52,11.07,6.52-5,6.52-11.07S112.21,82.35,108.61,82.35Zm0,18.34c-1.48,0-2.67-3.21-2.67-7.17s1.19-7.17,2.67-7.17,2.67,3.21,2.67,7.17S110.06,100.69,108.59,100.69Z"/><path class="cls-4" d="M67.43,109.37,62,113.25l.08,8.85s-4,4.47-12.35,4-5.65-9.15-4.32-11.47l1.33-2.33,3.49-1.66"/><polyline class="cls-6" points="46.71 112.27 45.47 111.02 66.87 91.79"/><circle class="cls-8" cx="49.63" cy="111.23" r="5.34"/><path class="cls-9" d="M139.49,97.15a66.27,66.27,0,0,0-12.44-2.21c-5.29,11,18.41,24.39,18.41,24.39l.23,5.75a16.78,16.78,0,0,0,5.49,6.21,14.89,14.89,0,0,0,14.36,0,12,12,0,0,0,5.7-10.68c0-3.76-4-6.81-4-6.81l-2.6.79.1-6.08a84.51,84.51,0,0,0-25.3-11.36m26.17,27a8.34,8.34,0,0,1-4,3.19c-6.32,2.67-11.5-4.11-11.5-4.11l-.12-6.84S126.77,105,131,96.85c0,0,17.3,2.61,32.21,12l-.11,7.08,2.19.53S167.75,120.61,165.66,124.14Z"/><circle class="cls-8" cx="162.58" cy="111.64" r="6.13"/><path class="cls-9" d="M26.23,201.27h-.71a1.53,1.53,0,0,0-.53-1,2,2,0,0,0-1.27-.33,2,2,0,0,0-1.12.27.83.83,0,0,0-.44.74.84.84,0,0,0,.56.76,7.71,7.71,0,0,0,1.32.43,6.32,6.32,0,0,1,1.62.58,1.4,1.4,0,0,1,.75,1.25c0,1.24-.85,1.88-2.54,1.88s-2.49-.71-2.63-2.12H22a1.72,1.72,0,0,0,.58,1.17,2.19,2.19,0,0,0,1.31.32c1.21,0,1.82-.4,1.82-1.22a.94.94,0,0,0-.62-.86,8.5,8.5,0,0,0-1.39-.43,6.46,6.46,0,0,1-1.53-.56,1.3,1.3,0,0,1-.71-1.18,1.38,1.38,0,0,1,.68-1.21,2.83,2.83,0,0,1,1.64-.45C25.21,199.36,26.05,200,26.23,201.27Z"/><path class="cls-9" d="M34.21,200.36a4.35,4.35,0,0,1,.72,2.48H29.84a2.85,2.85,0,0,0,.62,1.79,2,2,0,0,0,1.55.64,2.09,2.09,0,0,0,1.38-.44,2.39,2.39,0,0,0,.67-1.09h.74a2.91,2.91,0,0,1-.84,1.47,2.78,2.78,0,0,1-2,.69A2.67,2.67,0,0,1,29.9,205a3.44,3.44,0,0,1-.81-2.39,3.4,3.4,0,0,1,.78-2.29,2.61,2.61,0,0,1,2.12-1A2.57,2.57,0,0,1,34.21,200.36Zm-3.7.26a2.71,2.71,0,0,0-.66,1.63h4.32C34,200.74,33.32,200,32,200A1.86,1.86,0,0,0,30.51,200.62Z"/><path class="cls-9" d="M42.73,200.36a4.35,4.35,0,0,1,.72,2.48H38.36a2.79,2.79,0,0,0,.62,1.79,2,2,0,0,0,1.55.64,2.09,2.09,0,0,0,1.38-.44,2.3,2.3,0,0,0,.66-1.09h.74a2.83,2.83,0,0,1-.83,1.47,2.78,2.78,0,0,1-1.95.69,2.67,2.67,0,0,1-2.11-.89,3.4,3.4,0,0,1-.81-2.39,3.45,3.45,0,0,1,.77-2.29,2.64,2.64,0,0,1,2.12-1A2.57,2.57,0,0,1,42.73,200.36Zm-3.71.26a2.76,2.76,0,0,0-.65,1.63h4.31c-.12-1.51-.84-2.26-2.16-2.26A1.89,1.89,0,0,0,39,200.62Z"/><path class="cls-9" d="M52.51,199.53l1.7,5.28,1.57-5.28h.7l1.58,5.28,1.71-5.28h.8l-2.15,6.2h-.7l-1.58-5.26-1.59,5.26h-.7l-2.15-6.2Z"/><path class="cls-9" d="M68.22,200.35a3.45,3.45,0,0,1,.77,2.29,3.41,3.41,0,0,1-.77,2.27,2.76,2.76,0,0,1-2.21,1,2.8,2.8,0,0,1-2.22-1,3.78,3.78,0,0,1,0-4.56,3,3,0,0,1,4.42,0Zm-3.9.45a3.32,3.32,0,0,0,0,3.66,2.17,2.17,0,0,0,3.38,0,3.27,3.27,0,0,0,0-3.66,2.17,2.17,0,0,0-3.38,0Z"/><path class="cls-9" d="M75.69,199.49v.74a3.23,3.23,0,0,0-1-.14,1.56,1.56,0,0,0-1.36.75,2.6,2.6,0,0,0-.49,1.62v3.27h-.73v-6.2h.73v1.19a2.36,2.36,0,0,1,.69-.93,1.86,1.86,0,0,1,1.21-.43A2.66,2.66,0,0,1,75.69,199.49Z"/><path class="cls-9" d="M79.35,197v8.73h-.73V197Z"/><path class="cls-9" d="M88.43,197v8.73h-.69v-1.22a2.25,2.25,0,0,1-2.19,1.39,2.55,2.55,0,0,1-2.12-1,4.1,4.1,0,0,1,0-4.55,2.47,2.47,0,0,1,2.08-1,2.3,2.3,0,0,1,2.2,1.48V197ZM84,200.77a3,3,0,0,0-.52,1.85,3.09,3.09,0,0,0,.51,1.87,1.87,1.87,0,0,0,1.63.8,1.9,1.9,0,0,0,1.59-.77,3,3,0,0,0,.52-1.8v-.14a2.94,2.94,0,0,0-.56-1.86,1.79,1.79,0,0,0-1.52-.75A1.92,1.92,0,0,0,84,200.77Z"/><path class="cls-9" d="M99.27,199.53h1.63v.62H99.27v4.2a.93.93,0,0,0,.14.59.72.72,0,0,0,.55.17h.78v.62h-.88a1.3,1.3,0,0,1-1-.37,1.45,1.45,0,0,1-.28-1v-4.2H97.21v-.62h1.33v-1.7l.73-.3Z"/><path class="cls-9" d="M104.62,197v3.66a2.42,2.42,0,0,1,.87-1,2.25,2.25,0,0,1,1.19-.33,2.19,2.19,0,0,1,1.67.63,2.48,2.48,0,0,1,.61,1.78v4h-.73v-3.86a2,2,0,0,0-.46-1.4,1.84,1.84,0,0,0-2.62.14,2.23,2.23,0,0,0-.53,1.53v3.59h-.74V197Z"/><path class="cls-9" d="M115.9,199.49v.74a3.23,3.23,0,0,0-1-.14,1.55,1.55,0,0,0-1.35.75,2.6,2.6,0,0,0-.5,1.62v3.27h-.73v-6.2h.73v1.19a2.36,2.36,0,0,1,.69-.93,1.86,1.86,0,0,1,1.21-.43A2.62,2.62,0,0,1,115.9,199.49Z"/><path class="cls-9" d="M123.56,200.35a3.44,3.44,0,0,1,.76,2.29,3.4,3.4,0,0,1-.76,2.27,3,3,0,0,1-4.44,0,3.46,3.46,0,0,1-.76-2.27,3.4,3.4,0,0,1,.78-2.29,2.7,2.7,0,0,1,2.2-1A2.77,2.77,0,0,1,123.56,200.35Zm-3.9.45a3.27,3.27,0,0,0,0,3.66,2,2,0,0,0,1.68.81,2,2,0,0,0,1.7-.81,3.27,3.27,0,0,0,0-3.66,2,2,0,0,0-1.7-.81A2,2,0,0,0,119.66,200.8Z"/><path class="cls-9" d="M128.21,199.53v3.79a2.15,2.15,0,0,0,.41,1.45,1.67,1.67,0,0,0,1.35.5,1.76,1.76,0,0,0,1.27-.55,2.22,2.22,0,0,0,.62-1.42v-3.77h.73v6.2h-.73v-1a2.33,2.33,0,0,1-2.09,1.21c-1.52,0-2.29-.85-2.29-2.54v-3.83Z"/><path class="cls-9" d="M140.81,200.78v-1.25h.73v5.74c0,2-.95,3-2.81,3a3,3,0,0,1-1.9-.53,2.23,2.23,0,0,1-.8-1.48h.72a1.62,1.62,0,0,0,.59,1,2.17,2.17,0,0,0,1.39.38c1.38,0,2.08-.78,2.08-2.31v-1.19a2.34,2.34,0,0,1-2.24,1.42,2.62,2.62,0,0,1-2.09-.93,3.62,3.62,0,0,1,0-4.36,2.57,2.57,0,0,1,2.09-.94A2.32,2.32,0,0,1,140.81,200.78Zm-3.77-.06a2.69,2.69,0,0,0-.55,1.76,2.76,2.76,0,0,0,.52,1.73,1.91,1.91,0,0,0,1.63.75,2,2,0,0,0,1.63-.72,3.14,3.14,0,0,0,0-3.52,2.11,2.11,0,0,0-3.23,0Z"/><path class="cls-9" d="M145.68,197v3.66a2.37,2.37,0,0,1,.88-1,2.44,2.44,0,0,1,2.86.3,2.52,2.52,0,0,1,.6,1.78v4h-.73v-3.86a2,2,0,0,0-.46-1.4,1.83,1.83,0,0,0-2.61.14,2.19,2.19,0,0,0-.54,1.53v3.59h-.74V197Z"/><path class="cls-9" d="M159.45,199.53l1.69,5.28,1.58-5.28h.7l1.58,5.28,1.71-5.28h.79l-2.14,6.2h-.7l-1.58-5.26-1.6,5.26h-.69l-2.15-6.2Z"/><path class="cls-9" d="M175.16,200.35a3.45,3.45,0,0,1,.77,2.29,3.41,3.41,0,0,1-.77,2.27,3,3,0,0,1-4.43,0,3.74,3.74,0,0,1,0-4.56,2.71,2.71,0,0,1,2.2-1A2.75,2.75,0,0,1,175.16,200.35Zm-3.9.45a3.27,3.27,0,0,0,0,3.66,2,2,0,0,0,1.68.81,2,2,0,0,0,1.7-.81,3.27,3.27,0,0,0,0-3.66,2,2,0,0,0-1.7-.81A2,2,0,0,0,171.26,200.8Z"/><path class="cls-9" d="M182.63,199.49v.74a3.28,3.28,0,0,0-1-.14,1.56,1.56,0,0,0-1.36.75,2.6,2.6,0,0,0-.5,1.62v3.27h-.72v-6.2h.72v1.19a2.29,2.29,0,0,1,.7-.93,1.86,1.86,0,0,1,1.21-.43A2.69,2.69,0,0,1,182.63,199.49Z"/><path class="cls-9" d="M190.78,197v8.73h-.69v-1.22a2.26,2.26,0,0,1-2.19,1.39,2.53,2.53,0,0,1-2.12-1,4,4,0,0,1,0-4.55,2.45,2.45,0,0,1,2.08-1,2.29,2.29,0,0,1,2.19,1.48V197Zm-4.43,3.77a2.89,2.89,0,0,0-.53,1.85,3.09,3.09,0,0,0,.51,1.87,2.05,2.05,0,0,0,3.23,0,3.07,3.07,0,0,0,.52-1.8v-.14a3,3,0,0,0-.56-1.86A1.82,1.82,0,0,0,188,200,1.9,1.9,0,0,0,186.35,200.77Z"/><path class="cls-9" d="M48.66,178.51l3.9-.82c.32,2.73,1.64,4.1,4,4.1,1.75-.06,2.67-.85,2.78-2.37a2.69,2.69,0,0,0-1.83-2.55c-1.27-.49-2.44-.88-3.5-1.18-3.23-.79-4.8-2.71-4.69-5.74.32-3.4,2.46-5.22,6.44-5.47,4.14-.06,6.57,1.83,7.32,5.65l-3.9.91c-.27-2-1.35-3-3.26-3-1.54.06-2.36.69-2.47,1.91s.93,2,3.11,2.55a14.44,14.44,0,0,1,4.13,1.64,5.64,5.64,0,0,1,2.86,5.1q-.24,5.82-6.91,6T48.66,178.51Z"/><path class="cls-9" d="M78.56,177.78c-.15,4.74-2.43,7.19-6.83,7.38q-6.53-.47-6.84-7.38.31-7.38,6.92-7.65Q78.24,170.4,78.56,177.78Zm-4,0c0-2.73-1-4.13-2.94-4.19s-2.79,1.4-2.79,4.19,1,4,2.79,4.1S74.59,180.51,74.59,177.78Z"/><path class="cls-9" d="M93.6,175l-3.9.73a2.92,2.92,0,0,0-2.55-2.1q-3,.18-3.18,4.19,0,4.09,3.18,4.1a2.68,2.68,0,0,0,2.55-2.55l4.13.54q-1.42,5.48-6.84,5.29c-4.56-.13-6.89-2.61-7-7.47q.24-7.29,7.07-7.56A6.7,6.7,0,0,1,93.6,175Z"/><path class="cls-9" d="M99.72,168.49h-4v-3.73h4Zm0,16.39h-4V170.59h4Z"/><path class="cls-7" d="M124.14,163.43,117,185h-4.83l-7.23-21.6h4.65l4.48,15.15c.17.72.37,1.43.6,2.15.29-1,.49-1.73.61-2.25l4.21-15Z"/><path class="cls-7" d="M129.73,167.43h-4.3v-4h4.3Zm0,17.6h-4.3V169.68h4.3Z"/><path class="cls-7" d="M146.7,177.5v1.18H136.1a3.41,3.41,0,0,0,3.45,3.42c1.61,0,2.58-.62,2.93-1.86l4.48.59q-1.65,4.48-7.32,4.49-7.41-.28-7.75-7.72.33-8.11,7.23-8.41Q146.61,169.3,146.7,177.5ZM136,175.74h6.63a3.28,3.28,0,0,0-3.27-3.32A3.24,3.24,0,0,0,136,175.74Z"/><path class="cls-7" d="M171,169.58l-4.74,15.35h-4.56l-2.15-9.19a9.7,9.7,0,0,1-.17-2h-.09a9.6,9.6,0,0,1-.17,2l-2.41,9.19h-4.31l-4.74-15.35H152l2.41,10.07a5.75,5.75,0,0,0,.08.69,8.61,8.61,0,0,1,.09,1.07h.09a8.26,8.26,0,0,1,.08-1.07,4.57,4.57,0,0,0,.09-.69l2.32-10.07h4.14l2.32,10.07c.06.26.14.85.26,1.76H164c.11-.91.2-1.5.25-1.76l2.33-10.07Z"/></svg>